<mxfile host="app.diagrams.net" modified="2023-07-17T03:38:11.243Z" agent="Mozilla/5.0 (Windows NT 10.0; Win64; x64) AppleWebKit/537.36 (KHTML, like Gecko) Chrome/114.0.0.0 Safari/537.36" etag="y7lo704OSJ5AeB3YC3Wn" version="21.6.1" type="github" pages="2">
  <diagram id="yPxyJZ8AM_hMuL3Unpa9" name="gitflow">
    <mxGraphModel dx="1050" dy="541" grid="1" gridSize="10" guides="1" tooltips="1" connect="1" arrows="1" fold="1" page="1" pageScale="1" pageWidth="850" pageHeight="1100" math="0" shadow="0">
      <root>
        <mxCell id="0" />
        <mxCell id="1" parent="0" />
        <mxCell id="4" value="" style="ellipse;whiteSpace=wrap;html=1;aspect=fixed;fillColor=#dae8fc;strokeColor=#6c8ebf;fontStyle=1;labelPosition=center;verticalLabelPosition=top;align=center;verticalAlign=bottom;fontColor=#0066CC;" parent="1" vertex="1">
          <mxGeometry x="140" y="92" width="20" height="20" as="geometry" />
        </mxCell>
        <mxCell id="7" value="Master" style="text;html=1;strokeColor=#6c8ebf;fillColor=#dae8fc;align=center;verticalAlign=middle;whiteSpace=wrap;rounded=0;" parent="1" vertex="1">
          <mxGeometry x="620" y="92" width="90" height="20" as="geometry" />
        </mxCell>
        <mxCell id="20" value="Stagging" style="text;html=1;strokeColor=#b85450;fillColor=#f8cecc;align=center;verticalAlign=middle;whiteSpace=wrap;rounded=0;" parent="1" vertex="1">
          <mxGeometry x="570" y="350" width="150" height="20" as="geometry" />
        </mxCell>
        <mxCell id="35" value="" style="endArrow=none;dashed=1;html=1;fillColor=#dae8fc;strokeColor=#6c8ebf;" parent="1" source="4" edge="1">
          <mxGeometry width="50" height="50" relative="1" as="geometry">
            <mxPoint x="29.9999999999917" y="102" as="sourcePoint" />
            <mxPoint x="620" y="102" as="targetPoint" />
            <Array as="points" />
          </mxGeometry>
        </mxCell>
        <mxCell id="102" value="PTPLAPRUHUB-89" style="text;html=1;strokeColor=#82b366;fillColor=#d5e8d4;align=center;verticalAlign=middle;whiteSpace=wrap;rounded=0;" parent="1" vertex="1">
          <mxGeometry x="570" y="320" width="150" height="20" as="geometry" />
        </mxCell>
        <mxCell id="VSKRTit2A8BUFnFAjgjS-178" value="Local Repository" style="text;html=1;align=center;verticalAlign=middle;resizable=0;points=[];autosize=1;strokeColor=none;fillColor=none;" vertex="1" parent="1">
          <mxGeometry x="370" y="10" width="110" height="30" as="geometry" />
        </mxCell>
        <mxCell id="VSKRTit2A8BUFnFAjgjS-179" value="" style="ellipse;whiteSpace=wrap;html=1;aspect=fixed;fillColor=#dae8fc;strokeColor=#6c8ebf;fontStyle=1;labelPosition=center;verticalLabelPosition=top;align=center;verticalAlign=bottom;fontColor=#0066CC;" vertex="1" parent="1">
          <mxGeometry x="130" y="270" width="20" height="20" as="geometry" />
        </mxCell>
        <mxCell id="VSKRTit2A8BUFnFAjgjS-180" value="Master" style="text;html=1;strokeColor=#6c8ebf;fillColor=#dae8fc;align=center;verticalAlign=middle;whiteSpace=wrap;rounded=0;" vertex="1" parent="1">
          <mxGeometry x="570" y="270" width="150" height="20" as="geometry" />
        </mxCell>
        <mxCell id="VSKRTit2A8BUFnFAjgjS-181" value="" style="endArrow=none;dashed=1;html=1;fillColor=#dae8fc;strokeColor=#6c8ebf;entryX=0;entryY=0.5;entryDx=0;entryDy=0;" edge="1" parent="1" source="VSKRTit2A8BUFnFAjgjS-179" target="VSKRTit2A8BUFnFAjgjS-180">
          <mxGeometry width="50" height="50" relative="1" as="geometry">
            <mxPoint x="19.9999999999917" y="280" as="sourcePoint" />
            <mxPoint x="450" y="280" as="targetPoint" />
            <Array as="points" />
          </mxGeometry>
        </mxCell>
        <mxCell id="VSKRTit2A8BUFnFAjgjS-182" value="" style="ellipse;whiteSpace=wrap;html=1;aspect=fixed;fillColor=#d5e8d4;strokeColor=#82b366;fontStyle=1;labelPosition=center;verticalLabelPosition=top;align=center;verticalAlign=bottom;" vertex="1" parent="1">
          <mxGeometry x="220" y="320" width="20" height="20" as="geometry" />
        </mxCell>
        <mxCell id="uaKIbZstQyi4xgDFck8a-102" style="edgeStyle=orthogonalEdgeStyle;rounded=1;orthogonalLoop=1;jettySize=auto;html=1;dashed=1;endArrow=none;endFill=0;fontSize=10;fontColor=#FFB570;fillColor=#d5e8d4;strokeColor=#82b366;exitX=0.5;exitY=1;exitDx=0;exitDy=0;entryX=0;entryY=0.5;entryDx=0;entryDy=0;" edge="1" parent="1" source="VSKRTit2A8BUFnFAjgjS-179" target="VSKRTit2A8BUFnFAjgjS-182">
          <mxGeometry relative="1" as="geometry">
            <Array as="points">
              <mxPoint x="140" y="330" />
            </Array>
            <mxPoint x="360" y="180" as="sourcePoint" />
            <mxPoint x="375" y="140" as="targetPoint" />
          </mxGeometry>
        </mxCell>
        <mxCell id="J4VodZoV4AaOVRPnHPg7-102" value="Bitbucket Repository" style="text;html=1;align=center;verticalAlign=middle;resizable=0;points=[];autosize=1;strokeColor=none;fillColor=none;" vertex="1" parent="1">
          <mxGeometry x="360" y="190" width="130" height="30" as="geometry" />
        </mxCell>
        <mxCell id="J4VodZoV4AaOVRPnHPg7-103" value="" style="ellipse;whiteSpace=wrap;html=1;aspect=fixed;fillColor=#f8cecc;strokeColor=#b85450;fontStyle=1;labelPosition=center;verticalLabelPosition=top;align=center;verticalAlign=bottom;" vertex="1" parent="1">
          <mxGeometry x="280" y="350" width="20" height="20" as="geometry" />
        </mxCell>
        <mxCell id="J4VodZoV4AaOVRPnHPg7-104" style="edgeStyle=orthogonalEdgeStyle;rounded=1;orthogonalLoop=1;jettySize=auto;html=1;dashed=1;endArrow=none;endFill=0;fontSize=10;fontColor=#FFB570;fillColor=#f8cecc;strokeColor=#b85450;entryX=0;entryY=0.5;entryDx=0;entryDy=0;exitX=0.5;exitY=1;exitDx=0;exitDy=0;" edge="1" parent="1" source="VSKRTit2A8BUFnFAjgjS-182" target="J4VodZoV4AaOVRPnHPg7-103">
          <mxGeometry relative="1" as="geometry">
            <Array as="points">
              <mxPoint x="230" y="360" />
            </Array>
            <mxPoint x="230" y="360" as="sourcePoint" />
            <mxPoint x="230" y="340" as="targetPoint" />
          </mxGeometry>
        </mxCell>
        <mxCell id="J4VodZoV4AaOVRPnHPg7-105" value="" style="ellipse;whiteSpace=wrap;html=1;aspect=fixed;fillColor=#d5e8d4;strokeColor=#82b366;fontStyle=1;labelPosition=center;verticalLabelPosition=top;align=center;verticalAlign=bottom;" vertex="1" parent="1">
          <mxGeometry x="430" y="320" width="20" height="20" as="geometry" />
        </mxCell>
        <mxCell id="J4VodZoV4AaOVRPnHPg7-106" style="edgeStyle=orthogonalEdgeStyle;rounded=1;orthogonalLoop=1;jettySize=auto;html=1;dashed=1;endArrow=none;endFill=0;fontSize=10;fontColor=#FFB570;fillColor=#f5f5f5;strokeColor=#000000;exitX=1;exitY=0.5;exitDx=0;exitDy=0;entryX=0;entryY=0.5;entryDx=0;entryDy=0;opacity=30;" edge="1" parent="1" source="VSKRTit2A8BUFnFAjgjS-182" target="J4VodZoV4AaOVRPnHPg7-105">
          <mxGeometry relative="1" as="geometry">
            <Array as="points">
              <mxPoint x="350" y="330" />
              <mxPoint x="350" y="330" />
            </Array>
            <mxPoint x="150" y="300" as="sourcePoint" />
            <mxPoint x="230" y="340" as="targetPoint" />
          </mxGeometry>
        </mxCell>
        <mxCell id="J4VodZoV4AaOVRPnHPg7-107" value="" style="ellipse;whiteSpace=wrap;html=1;aspect=fixed;fillColor=#f8cecc;strokeColor=#b85450;fontStyle=1;labelPosition=center;verticalLabelPosition=top;align=center;verticalAlign=bottom;" vertex="1" parent="1">
          <mxGeometry x="340" y="350" width="20" height="20" as="geometry" />
        </mxCell>
        <mxCell id="J4VodZoV4AaOVRPnHPg7-108" style="edgeStyle=orthogonalEdgeStyle;rounded=1;orthogonalLoop=1;jettySize=auto;html=1;dashed=1;endArrow=none;endFill=0;fontSize=10;fontColor=#FFB570;fillColor=#d5e8d4;strokeColor=#82b366;exitX=1;exitY=0.5;exitDx=0;exitDy=0;" edge="1" parent="1" source="J4VodZoV4AaOVRPnHPg7-105">
          <mxGeometry relative="1" as="geometry">
            <Array as="points">
              <mxPoint x="490" y="330" />
            </Array>
            <mxPoint x="430" y="310" as="sourcePoint" />
            <mxPoint x="510" y="280" as="targetPoint" />
          </mxGeometry>
        </mxCell>
        <mxCell id="J4VodZoV4AaOVRPnHPg7-109" style="edgeStyle=orthogonalEdgeStyle;rounded=1;orthogonalLoop=1;jettySize=auto;html=1;dashed=1;endArrow=none;endFill=0;fontSize=10;fontColor=#FFB570;fillColor=#f8cecc;strokeColor=#b85450;entryX=0;entryY=0.5;entryDx=0;entryDy=0;exitX=1;exitY=0.5;exitDx=0;exitDy=0;" edge="1" parent="1" source="J4VodZoV4AaOVRPnHPg7-103" target="J4VodZoV4AaOVRPnHPg7-107">
          <mxGeometry relative="1" as="geometry">
            <Array as="points">
              <mxPoint x="320" y="360" />
              <mxPoint x="320" y="360" />
            </Array>
            <mxPoint x="60" y="400" as="sourcePoint" />
            <mxPoint x="330" y="400" as="targetPoint" />
          </mxGeometry>
        </mxCell>
        <mxCell id="J4VodZoV4AaOVRPnHPg7-110" style="edgeStyle=orthogonalEdgeStyle;rounded=1;orthogonalLoop=1;jettySize=auto;html=1;dashed=1;endArrow=none;endFill=0;fontSize=10;fontColor=#FFB570;fillColor=#f8cecc;strokeColor=#b85450;exitX=1;exitY=0.5;exitDx=0;exitDy=0;" edge="1" parent="1" source="J4VodZoV4AaOVRPnHPg7-107">
          <mxGeometry relative="1" as="geometry">
            <Array as="points">
              <mxPoint x="400" y="360" />
            </Array>
            <mxPoint x="240" y="350" as="sourcePoint" />
            <mxPoint x="410" y="330" as="targetPoint" />
          </mxGeometry>
        </mxCell>
      </root>
    </mxGraphModel>
  </diagram>
  <diagram id="Mc2svbY1vEnUxiaAl_83" name="Halaman-2">
    <mxGraphModel dx="1050" dy="541" grid="1" gridSize="10" guides="1" tooltips="1" connect="1" arrows="1" fold="1" page="1" pageScale="1" pageWidth="827" pageHeight="1169" math="0" shadow="0">
      <root>
        <mxCell id="0" />
        <mxCell id="1" parent="0" />
        <mxCell id="cXrtDImimPQeiHwf8py0-1" value="" style="ellipse;whiteSpace=wrap;html=1;aspect=fixed;fillColor=#dae8fc;strokeColor=#6c8ebf;fontStyle=1;labelPosition=center;verticalLabelPosition=top;align=center;verticalAlign=bottom;fontColor=#0066CC;" vertex="1" parent="1">
          <mxGeometry x="140" y="92" width="20" height="20" as="geometry" />
        </mxCell>
        <mxCell id="cXrtDImimPQeiHwf8py0-2" value="Master" style="text;html=1;strokeColor=#6c8ebf;fillColor=#dae8fc;align=center;verticalAlign=middle;whiteSpace=wrap;rounded=0;" vertex="1" parent="1">
          <mxGeometry x="620" y="92" width="90" height="20" as="geometry" />
        </mxCell>
        <mxCell id="cXrtDImimPQeiHwf8py0-3" value="Hotfix" style="text;html=1;strokeColor=#b85450;fillColor=#f8cecc;align=center;verticalAlign=middle;whiteSpace=wrap;rounded=0;" vertex="1" parent="1">
          <mxGeometry x="620" y="350" width="150" height="20" as="geometry" />
        </mxCell>
        <mxCell id="cXrtDImimPQeiHwf8py0-4" value="" style="endArrow=none;dashed=1;html=1;fillColor=#dae8fc;strokeColor=#6c8ebf;" edge="1" parent="1" source="cXrtDImimPQeiHwf8py0-1">
          <mxGeometry width="50" height="50" relative="1" as="geometry">
            <mxPoint x="29.9999999999917" y="102" as="sourcePoint" />
            <mxPoint x="620" y="102" as="targetPoint" />
            <Array as="points" />
          </mxGeometry>
        </mxCell>
        <mxCell id="cXrtDImimPQeiHwf8py0-5" value="Release" style="text;html=1;strokeColor=#d79b00;fillColor=#ffe6cc;align=center;verticalAlign=middle;whiteSpace=wrap;rounded=0;fontSize=12;" vertex="1" parent="1">
          <mxGeometry x="620" y="380" width="150" height="20" as="geometry" />
        </mxCell>
        <mxCell id="cXrtDImimPQeiHwf8py0-6" value="PTPLAPRUHUB-89" style="text;html=1;strokeColor=#82b366;fillColor=#d5e8d4;align=center;verticalAlign=middle;whiteSpace=wrap;rounded=0;" vertex="1" parent="1">
          <mxGeometry x="620" y="320" width="150" height="20" as="geometry" />
        </mxCell>
        <mxCell id="cXrtDImimPQeiHwf8py0-7" value="Local Repository" style="text;html=1;align=center;verticalAlign=middle;resizable=0;points=[];autosize=1;strokeColor=none;fillColor=none;" vertex="1" parent="1">
          <mxGeometry x="370" y="10" width="110" height="30" as="geometry" />
        </mxCell>
        <mxCell id="cXrtDImimPQeiHwf8py0-8" value="" style="ellipse;whiteSpace=wrap;html=1;aspect=fixed;fillColor=#dae8fc;strokeColor=#6c8ebf;fontStyle=1;labelPosition=center;verticalLabelPosition=top;align=center;verticalAlign=bottom;fontColor=#0066CC;" vertex="1" parent="1">
          <mxGeometry x="180" y="270" width="20" height="20" as="geometry" />
        </mxCell>
        <mxCell id="cXrtDImimPQeiHwf8py0-9" value="Master" style="text;html=1;strokeColor=#6c8ebf;fillColor=#dae8fc;align=center;verticalAlign=middle;whiteSpace=wrap;rounded=0;" vertex="1" parent="1">
          <mxGeometry x="620" y="270" width="150" height="20" as="geometry" />
        </mxCell>
        <mxCell id="cXrtDImimPQeiHwf8py0-10" value="" style="endArrow=none;dashed=1;html=1;fillColor=#dae8fc;strokeColor=#6c8ebf;entryX=0;entryY=0.5;entryDx=0;entryDy=0;" edge="1" parent="1" source="cXrtDImimPQeiHwf8py0-8" target="cXrtDImimPQeiHwf8py0-9">
          <mxGeometry width="50" height="50" relative="1" as="geometry">
            <mxPoint x="69.9999999999917" y="280" as="sourcePoint" />
            <mxPoint x="500" y="280" as="targetPoint" />
            <Array as="points" />
          </mxGeometry>
        </mxCell>
        <mxCell id="cXrtDImimPQeiHwf8py0-11" value="" style="ellipse;whiteSpace=wrap;html=1;aspect=fixed;fillColor=#dae8fc;strokeColor=#6c8ebf;fontStyle=1;labelPosition=center;verticalLabelPosition=top;align=center;verticalAlign=bottom;fontColor=#0066CC;" vertex="1" parent="1">
          <mxGeometry x="260" y="320" width="20" height="20" as="geometry" />
        </mxCell>
      </root>
    </mxGraphModel>
  </diagram>
</mxfile>
